<mxfile host="app.diagrams.net" modified="2023-06-18T04:57:32.939Z" agent="Mozilla/5.0 (Windows NT 10.0; Win64; x64) AppleWebKit/537.36 (KHTML, like Gecko) Chrome/114.0.0.0 Safari/537.36 Edg/114.0.1823.51" etag="T-3YDUmZ1QVoL6Gjm2ue" version="21.4.0" type="github">
  <diagram name="第 1 页" id="xIxhzjUZgAmlJQ-Zlbee">
    <mxGraphModel dx="2605" dy="1496" grid="0" gridSize="10" guides="1" tooltips="1" connect="1" arrows="1" fold="1" page="0" pageScale="1" pageWidth="827" pageHeight="1169" math="0" shadow="0">
      <root>
        <mxCell id="0" />
        <mxCell id="1" parent="0" />
        <mxCell id="WDeUEpoGClxjb2tYxeoV-1" value="" style="rounded=0;whiteSpace=wrap;html=1;verticalAlign=bottom;opacity=30;fillColor=#d5e8d4;gradientColor=#97d077;strokeColor=#82b366;" vertex="1" parent="1">
          <mxGeometry x="-125" y="161" width="869" height="153" as="geometry" />
        </mxCell>
        <mxCell id="WDeUEpoGClxjb2tYxeoV-2" value="感&lt;br&gt;知&lt;br&gt;设&lt;br&gt;备" style="rounded=1;whiteSpace=wrap;html=1;fillColor=#fff2cc;strokeColor=#d6b656;gradientColor=#ffd966;" vertex="1" parent="1">
          <mxGeometry x="-183" y="470" width="43" height="122" as="geometry" />
        </mxCell>
        <mxCell id="WDeUEpoGClxjb2tYxeoV-3" value="" style="rounded=0;whiteSpace=wrap;html=1;glass=0;opacity=30;fillColor=#fff2cc;strokeColor=#d6b656;gradientColor=#ffd966;" vertex="1" parent="1">
          <mxGeometry x="-125" y="470" width="872" height="119" as="geometry" />
        </mxCell>
        <mxCell id="WDeUEpoGClxjb2tYxeoV-4" value="驱&lt;br&gt;动&lt;br&gt;层" style="rounded=1;whiteSpace=wrap;html=1;fillColor=#ffcd28;strokeColor=#d79b00;gradientColor=#ffa500;" vertex="1" parent="1">
          <mxGeometry x="-183" y="330.5" width="43" height="122" as="geometry" />
        </mxCell>
        <mxCell id="WDeUEpoGClxjb2tYxeoV-5" value="各系列无人机" style="rounded=1;whiteSpace=wrap;html=1;opacity=30;fillColor=#fff2cc;strokeColor=#d6b656;gradientColor=#ffd966;" vertex="1" parent="1">
          <mxGeometry x="-49" y="496" width="321" height="60" as="geometry" />
        </mxCell>
        <mxCell id="WDeUEpoGClxjb2tYxeoV-6" value="无人机挂载设备" style="rounded=1;whiteSpace=wrap;html=1;opacity=30;fillColor=#fff2cc;strokeColor=#d6b656;gradientColor=#ffd966;" vertex="1" parent="1">
          <mxGeometry x="363" y="496" width="317" height="60" as="geometry" />
        </mxCell>
        <mxCell id="WDeUEpoGClxjb2tYxeoV-7" value="&lt;b&gt;IOT&lt;/b&gt;" style="rounded=0;whiteSpace=wrap;html=1;verticalAlign=bottom;opacity=30;fillColor=#ffcd28;gradientColor=#ffa500;strokeColor=#d79b00;" vertex="1" parent="1">
          <mxGeometry x="-125" y="332" width="869" height="119" as="geometry" />
        </mxCell>
        <mxCell id="WDeUEpoGClxjb2tYxeoV-8" value="平&lt;br&gt;台&lt;br&gt;层" style="rounded=1;whiteSpace=wrap;html=1;fillColor=#d5e8d4;strokeColor=#82b366;gradientColor=#97d077;" vertex="1" parent="1">
          <mxGeometry x="-183" y="159" width="43" height="154" as="geometry" />
        </mxCell>
        <mxCell id="WDeUEpoGClxjb2tYxeoV-9" value="设备接入" style="rounded=1;whiteSpace=wrap;html=1;opacity=30;fillColor=#ffcd28;gradientColor=#ffa500;strokeColor=#d79b00;" vertex="1" parent="1">
          <mxGeometry x="-98" y="362" width="120" height="60" as="geometry" />
        </mxCell>
        <mxCell id="WDeUEpoGClxjb2tYxeoV-10" value="协议适配转换" style="rounded=1;whiteSpace=wrap;html=1;opacity=30;fillColor=#ffcd28;gradientColor=#ffa500;strokeColor=#d79b00;" vertex="1" parent="1">
          <mxGeometry x="472" y="361.5" width="120" height="60" as="geometry" />
        </mxCell>
        <mxCell id="WDeUEpoGClxjb2tYxeoV-11" value="视频接入" style="rounded=1;whiteSpace=wrap;html=1;opacity=30;fillColor=#ffcd28;gradientColor=#ffa500;strokeColor=#d79b00;" vertex="1" parent="1">
          <mxGeometry x="39" y="362" width="120" height="60" as="geometry" />
        </mxCell>
        <mxCell id="WDeUEpoGClxjb2tYxeoV-12" value="各类传感数据接入" style="rounded=1;whiteSpace=wrap;html=1;opacity=30;fillColor=#ffcd28;gradientColor=#ffa500;strokeColor=#d79b00;" vertex="1" parent="1">
          <mxGeometry x="314" y="361.5" width="120" height="60" as="geometry" />
        </mxCell>
        <mxCell id="WDeUEpoGClxjb2tYxeoV-13" value="图片接入" style="rounded=1;whiteSpace=wrap;html=1;opacity=30;fillColor=#ffcd28;gradientColor=#ffa500;strokeColor=#d79b00;" vertex="1" parent="1">
          <mxGeometry x="175" y="362" width="120" height="60" as="geometry" />
        </mxCell>
        <mxCell id="WDeUEpoGClxjb2tYxeoV-14" value="设备管理" style="rounded=1;whiteSpace=wrap;html=1;opacity=30;fillColor=#ffcd28;gradientColor=#ffa500;strokeColor=#d79b00;" vertex="1" parent="1">
          <mxGeometry x="598" y="361.5" width="120" height="60" as="geometry" />
        </mxCell>
        <mxCell id="WDeUEpoGClxjb2tYxeoV-16" value="UVER&lt;br&gt;无人机管理平台" style="rounded=1;whiteSpace=wrap;html=1;opacity=30;fillColor=#d5e8d4;gradientColor=#97d077;strokeColor=#82b366;" vertex="1" parent="1">
          <mxGeometry x="-113" y="202" width="160" height="80" as="geometry" />
        </mxCell>
        <mxCell id="WDeUEpoGClxjb2tYxeoV-17" value="应&lt;br&gt;用&lt;br&gt;层" style="rounded=1;whiteSpace=wrap;html=1;fillColor=#dae8fc;strokeColor=#6c8ebf;" vertex="1" parent="1">
          <mxGeometry x="-181" y="-137" width="43" height="279" as="geometry" />
        </mxCell>
        <mxCell id="WDeUEpoGClxjb2tYxeoV-18" value="" style="rounded=0;whiteSpace=wrap;html=1;verticalAlign=bottom;opacity=30;fillColor=#dae8fc;strokeColor=#6c8ebf;" vertex="1" parent="1">
          <mxGeometry x="-125" y="-138" width="871" height="280" as="geometry" />
        </mxCell>
        <mxCell id="WDeUEpoGClxjb2tYxeoV-19" value="统一门户" style="rounded=1;whiteSpace=wrap;html=1;opacity=30;fillColor=#dae8fc;strokeColor=#6c8ebf;" vertex="1" parent="1">
          <mxGeometry x="-98" y="104" width="395" height="30" as="geometry" />
        </mxCell>
        <mxCell id="WDeUEpoGClxjb2tYxeoV-20" value="运维管理系统" style="rounded=1;whiteSpace=wrap;html=1;opacity=30;fillColor=#dae8fc;strokeColor=#6c8ebf;" vertex="1" parent="1">
          <mxGeometry x="326" y="104" width="395" height="30" as="geometry" />
        </mxCell>
        <mxCell id="WDeUEpoGClxjb2tYxeoV-21" value="无&lt;br&gt;人&lt;br&gt;机&lt;br&gt;共&lt;br&gt;享&lt;br&gt;平&lt;br&gt;台" style="rounded=1;whiteSpace=wrap;html=1;opacity=30;fillColor=#dae8fc;strokeColor=#6c8ebf;" vertex="1" parent="1">
          <mxGeometry x="-91" y="-80.5" width="30" height="150" as="geometry" />
        </mxCell>
        <mxCell id="WDeUEpoGClxjb2tYxeoV-22" value="低&lt;br&gt;空&lt;br&gt;空&lt;br&gt;域&lt;br&gt;管&lt;br&gt;理&lt;br&gt;平&lt;br&gt;台" style="rounded=1;whiteSpace=wrap;html=1;opacity=30;fillColor=#dae8fc;strokeColor=#6c8ebf;" vertex="1" parent="1">
          <mxGeometry x="-53" y="-80.5" width="30" height="150" as="geometry" />
        </mxCell>
        <mxCell id="WDeUEpoGClxjb2tYxeoV-23" value="低&lt;br&gt;空&lt;br&gt;航&lt;br&gt;道&lt;br&gt;管&lt;br&gt;理&lt;br&gt;平&lt;br&gt;台" style="rounded=1;whiteSpace=wrap;html=1;opacity=30;fillColor=#dae8fc;strokeColor=#6c8ebf;" vertex="1" parent="1">
          <mxGeometry x="-15" y="-80.5" width="30" height="150" as="geometry" />
        </mxCell>
        <mxCell id="WDeUEpoGClxjb2tYxeoV-24" value="无&lt;br&gt;人&lt;br&gt;机&lt;br&gt;反&lt;br&gt;制&lt;br&gt;系&lt;br&gt;统" style="rounded=1;whiteSpace=wrap;html=1;opacity=30;fillColor=#dae8fc;strokeColor=#6c8ebf;" vertex="1" parent="1">
          <mxGeometry x="23" y="-80.5" width="30" height="150" as="geometry" />
        </mxCell>
        <mxCell id="WDeUEpoGClxjb2tYxeoV-25" value="低空无人机&lt;br&gt;AI中台" style="rounded=1;whiteSpace=wrap;html=1;opacity=30;fillColor=#d5e8d4;gradientColor=#97d077;strokeColor=#82b366;" vertex="1" parent="1">
          <mxGeometry x="59" y="202" width="160" height="80" as="geometry" />
        </mxCell>
        <mxCell id="WDeUEpoGClxjb2tYxeoV-27" value="CIM+GIS平台" style="rounded=1;whiteSpace=wrap;html=1;opacity=30;fillColor=#d5e8d4;gradientColor=#97d077;strokeColor=#82b366;" vertex="1" parent="1">
          <mxGeometry x="571" y="204" width="160" height="80" as="geometry" />
        </mxCell>
        <mxCell id="WDeUEpoGClxjb2tYxeoV-28" value="大屏" style="rounded=1;whiteSpace=wrap;html=1;opacity=30;fillColor=#dae8fc;strokeColor=#6c8ebf;" vertex="1" parent="1">
          <mxGeometry x="-100" y="-128" width="822" height="30" as="geometry" />
        </mxCell>
        <mxCell id="WDeUEpoGClxjb2tYxeoV-29" value="用&lt;br&gt;户&lt;br&gt;端" style="rounded=1;whiteSpace=wrap;html=1;fillColor=#dae8fc;strokeColor=#6c8ebf;" vertex="1" parent="1">
          <mxGeometry x="-179" y="-221" width="43" height="75" as="geometry" />
        </mxCell>
        <mxCell id="WDeUEpoGClxjb2tYxeoV-52" value="" style="whiteSpace=wrap;html=1;dashed=1;opacity=10;" vertex="1" parent="1">
          <mxGeometry x="225" y="165" width="169" height="145" as="geometry" />
        </mxCell>
        <mxCell id="WDeUEpoGClxjb2tYxeoV-30" value="" style="rounded=0;whiteSpace=wrap;html=1;glass=0;opacity=30;fillColor=#dae8fc;strokeColor=#6c8ebf;" vertex="1" parent="1">
          <mxGeometry x="-126" y="-218" width="872" height="72" as="geometry" />
        </mxCell>
        <mxCell id="WDeUEpoGClxjb2tYxeoV-31" value="感知应用" style="rounded=0;whiteSpace=wrap;html=1;opacity=30;verticalAlign=bottom;fillColor=#dae8fc;strokeColor=#6c8ebf;" vertex="1" parent="1">
          <mxGeometry x="-100" y="-87.5" width="244" height="180" as="geometry" />
        </mxCell>
        <mxCell id="WDeUEpoGClxjb2tYxeoV-32" value="WEB端" style="rounded=1;whiteSpace=wrap;html=1;opacity=30;fillColor=#dae8fc;strokeColor=#6c8ebf;" vertex="1" parent="1">
          <mxGeometry x="-12" y="-212" width="120" height="60" as="geometry" />
        </mxCell>
        <mxCell id="WDeUEpoGClxjb2tYxeoV-33" value="APP" style="rounded=1;whiteSpace=wrap;html=1;opacity=30;fillColor=#dae8fc;strokeColor=#6c8ebf;" vertex="1" parent="1">
          <mxGeometry x="163" y="-212" width="120" height="60" as="geometry" />
        </mxCell>
        <mxCell id="WDeUEpoGClxjb2tYxeoV-34" value="小程序" style="rounded=1;whiteSpace=wrap;html=1;opacity=30;fillColor=#dae8fc;strokeColor=#6c8ebf;" vertex="1" parent="1">
          <mxGeometry x="338" y="-212" width="120" height="60" as="geometry" />
        </mxCell>
        <mxCell id="WDeUEpoGClxjb2tYxeoV-35" value="大屏" style="rounded=1;whiteSpace=wrap;html=1;opacity=30;fillColor=#dae8fc;strokeColor=#6c8ebf;" vertex="1" parent="1">
          <mxGeometry x="512" y="-212" width="120" height="60" as="geometry" />
        </mxCell>
        <mxCell id="WDeUEpoGClxjb2tYxeoV-36" value="无&lt;br&gt;人&lt;br&gt;机&lt;br&gt;预&lt;br&gt;警&lt;br&gt;平&lt;br&gt;台" style="rounded=1;whiteSpace=wrap;html=1;opacity=30;fillColor=#dae8fc;strokeColor=#6c8ebf;" vertex="1" parent="1">
          <mxGeometry x="61" y="-80.5" width="30" height="150" as="geometry" />
        </mxCell>
        <mxCell id="WDeUEpoGClxjb2tYxeoV-37" value="低空感知应用场景" style="rounded=0;whiteSpace=wrap;html=1;opacity=30;verticalAlign=bottom;fillColor=#dae8fc;strokeColor=#6c8ebf;" vertex="1" parent="1">
          <mxGeometry x="180" y="-89" width="541" height="183" as="geometry" />
        </mxCell>
        <mxCell id="WDeUEpoGClxjb2tYxeoV-38" value="无&lt;br&gt;人&lt;br&gt;机&lt;br&gt;共&lt;br&gt;享&lt;br&gt;平&lt;br&gt;台" style="rounded=1;whiteSpace=wrap;html=1;opacity=30;fillColor=#dae8fc;strokeColor=#6c8ebf;" vertex="1" parent="1">
          <mxGeometry x="-91" y="-80.5" width="30" height="150" as="geometry" />
        </mxCell>
        <mxCell id="WDeUEpoGClxjb2tYxeoV-39" value="交&lt;br&gt;通&lt;br&gt;管&lt;br&gt;理" style="rounded=1;whiteSpace=wrap;html=1;opacity=30;fillColor=#dae8fc;strokeColor=#6c8ebf;" vertex="1" parent="1">
          <mxGeometry x="229" y="-80.5" width="30" height="150" as="geometry" />
        </mxCell>
        <mxCell id="WDeUEpoGClxjb2tYxeoV-40" value="环&lt;br&gt;境&lt;br&gt;水&lt;br&gt;务" style="rounded=1;whiteSpace=wrap;html=1;opacity=30;fillColor=#dae8fc;strokeColor=#6c8ebf;" vertex="1" parent="1">
          <mxGeometry x="267" y="-80.5" width="30" height="150" as="geometry" />
        </mxCell>
        <mxCell id="WDeUEpoGClxjb2tYxeoV-41" value="城&lt;br&gt;市&lt;br&gt;管&lt;br&gt;理" style="rounded=1;whiteSpace=wrap;html=1;opacity=30;fillColor=#dae8fc;strokeColor=#6c8ebf;" vertex="1" parent="1">
          <mxGeometry x="305" y="-80.5" width="30" height="150" as="geometry" />
        </mxCell>
        <mxCell id="WDeUEpoGClxjb2tYxeoV-42" value="城&lt;br&gt;市&lt;br&gt;建&lt;br&gt;设" style="rounded=1;whiteSpace=wrap;html=1;opacity=30;fillColor=#dae8fc;strokeColor=#6c8ebf;" vertex="1" parent="1">
          <mxGeometry x="343" y="-80.5" width="30" height="150" as="geometry" />
        </mxCell>
        <mxCell id="WDeUEpoGClxjb2tYxeoV-44" value="应&lt;br&gt;急&lt;br&gt;管&lt;br&gt;理" style="rounded=1;whiteSpace=wrap;html=1;opacity=30;fillColor=#dae8fc;strokeColor=#6c8ebf;" vertex="1" parent="1">
          <mxGeometry x="419" y="-80.5" width="30" height="150" as="geometry" />
        </mxCell>
        <mxCell id="WDeUEpoGClxjb2tYxeoV-45" value="社&lt;br&gt;会&lt;br&gt;事&lt;br&gt;务" style="rounded=1;whiteSpace=wrap;html=1;opacity=30;fillColor=#dae8fc;strokeColor=#6c8ebf;" vertex="1" parent="1">
          <mxGeometry x="457" y="-80.5" width="30" height="150" as="geometry" />
        </mxCell>
        <mxCell id="WDeUEpoGClxjb2tYxeoV-46" value="能&lt;br&gt;源&lt;br&gt;监&lt;br&gt;管" style="rounded=1;whiteSpace=wrap;html=1;opacity=30;fillColor=#dae8fc;strokeColor=#6c8ebf;" vertex="1" parent="1">
          <mxGeometry x="495" y="-80.5" width="30" height="150" as="geometry" />
        </mxCell>
        <mxCell id="WDeUEpoGClxjb2tYxeoV-47" value="文&lt;br&gt;化&lt;br&gt;体&lt;br&gt;育" style="rounded=1;whiteSpace=wrap;html=1;opacity=30;fillColor=#dae8fc;strokeColor=#6c8ebf;" vertex="1" parent="1">
          <mxGeometry x="533" y="-80.5" width="30" height="150" as="geometry" />
        </mxCell>
        <mxCell id="WDeUEpoGClxjb2tYxeoV-48" value="规&lt;br&gt;划&lt;br&gt;测&lt;br&gt;绘" style="rounded=1;whiteSpace=wrap;html=1;opacity=30;fillColor=#dae8fc;strokeColor=#6c8ebf;" vertex="1" parent="1">
          <mxGeometry x="381" y="-80.5" width="30" height="150" as="geometry" />
        </mxCell>
        <mxCell id="WDeUEpoGClxjb2tYxeoV-49" value="医&lt;br&gt;疗&lt;br&gt;卫&lt;br&gt;生" style="rounded=1;whiteSpace=wrap;html=1;opacity=30;fillColor=#dae8fc;strokeColor=#6c8ebf;" vertex="1" parent="1">
          <mxGeometry x="671" y="-80.5" width="30" height="150" as="geometry" />
        </mxCell>
        <mxCell id="WDeUEpoGClxjb2tYxeoV-50" value="" style="endArrow=none;dashed=1;html=1;dashPattern=1 3;strokeWidth=2;rounded=0;fillColor=#dae8fc;strokeColor=#6c8ebf;" edge="1" parent="1">
          <mxGeometry width="50" height="50" relative="1" as="geometry">
            <mxPoint x="582" y="-2" as="sourcePoint" />
            <mxPoint x="656" y="-2" as="targetPoint" />
          </mxGeometry>
        </mxCell>
        <mxCell id="WDeUEpoGClxjb2tYxeoV-51" value="视频播放转码服务" style="rounded=1;whiteSpace=wrap;html=1;opacity=30;fillColor=#d5e8d4;gradientColor=#97d077;strokeColor=#82b366;" vertex="1" parent="1">
          <mxGeometry x="405" y="204" width="160" height="80" as="geometry" />
        </mxCell>
        <mxCell id="WDeUEpoGClxjb2tYxeoV-53" value="非结构化数据存储平台" style="rounded=1;whiteSpace=wrap;html=1;opacity=30;fillColor=#d5e8d4;gradientColor=#97d077;strokeColor=#82b366;" vertex="1" parent="1">
          <mxGeometry x="230" y="257" width="160" height="46" as="geometry" />
        </mxCell>
        <mxCell id="WDeUEpoGClxjb2tYxeoV-54" value="数据中台" style="rounded=1;whiteSpace=wrap;html=1;opacity=30;fillColor=#d5e8d4;gradientColor=#97d077;strokeColor=#82b366;" vertex="1" parent="1">
          <mxGeometry x="229" y="171" width="160" height="77" as="geometry" />
        </mxCell>
        <mxCell id="WDeUEpoGClxjb2tYxeoV-58" value="公&lt;br&gt;共&lt;br&gt;安&lt;br&gt;全" style="rounded=1;whiteSpace=wrap;html=1;opacity=30;fillColor=#dae8fc;strokeColor=#6c8ebf;" vertex="1" parent="1">
          <mxGeometry x="191" y="-80.5" width="30" height="150" as="geometry" />
        </mxCell>
        <mxCell id="WDeUEpoGClxjb2tYxeoV-59" value="实&lt;br&gt;战&lt;br&gt;指&lt;br&gt;挥&lt;br&gt;平&lt;br&gt;台" style="rounded=1;whiteSpace=wrap;html=1;opacity=30;fillColor=#dae8fc;strokeColor=#6c8ebf;" vertex="1" parent="1">
          <mxGeometry x="100" y="-80.5" width="30" height="150" as="geometry" />
        </mxCell>
      </root>
    </mxGraphModel>
  </diagram>
</mxfile>
